<svg viewBox="0 0 24 24" xmlns="http://www.w3.org/2000/svg"><path d="M16.286 9.699a1.556 1.556 0 01-1.543-1.543c0-.836.707-1.543 1.543-1.543.835 0 1.543.707 1.543 1.543 0 .835-.708 1.543-1.543 1.543M8.57 19.984a1.556 1.556 0 01-1.542-1.543c0-.835.707-1.542 1.542-1.542.836 0 1.543.707 1.543 1.542 0 .836-.707 1.543-1.543 1.543m0-15.955c.849 0 1.543.707 1.543 1.542 0 .836-.707 1.543-1.543 1.543a1.564 1.564 0 01-1.54-1.543c0-.835.707-1.542 1.542-1.542m10.286 4.114a2.563 2.563 0 00-2.571-2.572A2.562 2.562 0 0015 10.354v.386c-.026.669-.296 1.26-.81 1.774-.514.515-1.106.785-1.774.81-1.067.026-1.903.206-2.572.58V7.783A2.563 2.563 0 008.56 3 2.552 2.552 0 006 5.571a2.571 2.571 0 001.286 2.212v8.434C6.527 16.667 6 17.49 6 18.43A2.563 2.563 0 008.571 21a2.563 2.563 0 002.572-2.571c0-.682-.257-1.286-.682-1.749.116-.077.618-.526.759-.604.321-.142.72-.219 1.209-.219 1.35-.064 2.507-.578 3.535-1.607 1.029-1.029 1.543-2.546 1.607-3.883h-.025c.784-.463 1.311-1.286 1.311-2.224" fill="currentColor"/></svg>