<svg viewBox="0 0 28 33" xmlns="http://www.w3.org/2000/svg"><g transform="translate(0 .5)" fill-rule="nonzero" fill="#205081"><path d="M13.71.045C6.16.045 0 2.095 0 4.62c0 .676 1.635 10.23 2.307 14.04.292 1.712 4.66 4.19 11.404 4.19v-.022.023c6.743 0 11.111-2.502 11.403-4.192.65-3.786 2.307-13.363 2.307-14.04C27.4 2.097 21.238.046 13.711.046zm0 19.74c-2.397 0-4.346-1.96-4.346-4.37 0-2.412 1.95-4.373 4.347-4.373 2.397 0 4.346 1.96 4.346 4.372 0 2.411-1.95 4.372-4.346 4.372zm0-13.746c-4.838 0-8.781-.856-8.781-1.893 0-1.036 3.943-1.87 8.782-1.87s8.782.856 8.782 1.893c-.023 1.037-3.943 1.87-8.782 1.87z"/><path d="M23.545 22.468c-.201 0-.38.157-.38.157s-3.383 2.682-9.477 2.682c-6.093 0-9.476-2.682-9.476-2.682s-.157-.157-.381-.157c-.247 0-.493.157-.493.54v.113c.515 2.817.896 4.823.963 5.116.448 2.073 4.48 3.65 9.342 3.65s8.894-1.555 9.342-3.65c.068-.316.448-2.299.964-5.116v-.113c.09-.383-.157-.54-.404-.54z"/><ellipse cx="13.711" cy="15.392" rx="2.173" ry="2.186"/></g></svg>